{
  "accessors": [
    {
      "bufferView": 2,
      "componentType": 5126,
      "count": 11064,
      "max": [
        1.697068452835083,
        1.62584388256073,
        0.9514515399932861
      ],
      "min": [
        -2.117032527923584,
        -2.688164472579956,
        -1.0752997398376465
      ],
      "type": "VEC3"
    },
    {
      "bufferView": 2,
      "byteOffset": 132768,
      "componentType": 5126,
      "count": 11064,
      "type": "VEC3"
    },
    {
      "bufferView": 1,
      "componentType": 5126,
      "count": 11064,
      "type": "VEC2"
    },
    {
      "bufferView": 0,
      "componentType": 5125,
      "count": 56640,
      "type": "SCALAR"
    },
    {
      "bufferView": 2,
      "byteOffset": 265536,
      "componentType": 5126,
      "count": 2762,
      "max": [
        1.5659756660461426,
        -0.3572249412536621,
        0.897781252861023
      ],
      "min": [
        -1.9563764333724976,
        -2.5833516120910645,
        -1.0122954845428467
      ],
      "type": "VEC3"
    },
    {
      "bufferView": 2,
      "byteOffset": 298680,
      "componentType": 5126,
      "count": 2762,
      "type": "VEC3"
    },
    {
      "bufferView": 0,
      "byteOffset": 226560,
      "componentType": 5125,
      "count": 16560,
      "type": "SCALAR"
    },
    {
      "bufferView": 2,
      "byteOffset": 331824,
      "componentType": 5126,
      "count": 6528,
      "max": [
        0.8058822751045227,
        2.36613130569458,
        0.3288867473602295
      ],
      "min": [
        0.2296239733695984,
        1.3259427547454834,
        -0.05869491398334503
      ],
      "type": "VEC3"
    },
    {
      "bufferView": 2,
      "byteOffset": 410160,
      "componentType": 5126,
      "count": 6528,
      "type": "VEC3"
    },
    {
      "bufferView": 1,
      "byteOffset": 88512,
      "componentType": 5126,
      "count": 6528,
      "type": "VEC2"
    },
    {
      "bufferView": 0,
      "byteOffset": 292800,
      "componentType": 5125,
      "count": 37056,
      "type": "SCALAR"
    }
  ],
  "asset": {
    "generator": "fab-model-conversion",
    "version": "2.0"
  },
  "bufferViews": [
    {
      "buffer": 0,
      "byteLength": 441024,
      "target": 34963
    },
    {
      "buffer": 0,
      "byteLength": 140736,
      "byteOffset": 441024,
      "byteStride": 8,
      "target": 34962
    },
    {
      "buffer": 0,
      "byteLength": 488496,
      "byteOffset": 581760,
      "byteStride": 12,
      "target": 34962
    }
  ],
  "buffers": [
    {
      "byteLength": 1070256,
      "uri": "scene.bin"
    }
  ],
  "extensionsUsed": [
    "KHR_materials_transmission",
    "KHR_materials_specular",
    "KHR_materials_clearcoat"
  ],
  "images": [
    {
      "uri": "textures/glass.005_metallicRoughness.png"
    }
  ],
  "materials": [
    {
      "alphaMode": "BLEND",
      "doubleSided": true,
      "extensions": {
        "KHR_materials_specular": {
          "specularColorFactor": [
            1.0,
            1.0,
            1.0
          ],
          "specularFactor": 0.9
        },
        "KHR_materials_transmission": {
          "transmissionFactor": 1.0
        }
      },
      "name": "glass.005",
      "pbrMetallicRoughness": {
        "baseColorFactor": [
          0.8,
          0.8,
          0.8,
          0.25
        ],
        "metallicFactor": 0.055,
        "metallicRoughnessTexture": {
          "index": 0
        }
      }
    },
    {
      "doubleSided": true,
      "extensions": {
        "KHR_materials_clearcoat": {
          "clearcoatFactor": 0.15,
          "clearcoatRoughnessFactor": 0
        }
      },
      "name": "glass.002",
      "pbrMetallicRoughness": {
        "baseColorFactor": [
          0.8931769999999999,
          0.018948500000000014,
          0.00805074000000001,
          1.0
        ],
        "metallicFactor": 0.35,
        "roughnessFactor": 0.05
      }
    },
    {
      "doubleSided": true,
      "extensions": {
        "KHR_materials_clearcoat": {
          "clearcoatFactor": 1,
          "clearcoatRoughnessFactor": 0.157636
        }
      },
      "name": "glass.003",
      "pbrMetallicRoughness": {
        "baseColorFactor": [
          0.5886938834607941,
          0.0,
          0.007677320272996745,
          1.0
        ],
        "metallicFactor": 0.33371186573937184,
        "roughnessFactor": 0.153818
      }
    }
  ],
  "meshes": [
    {
      "name": "Object_0",
      "primitives": [
        {
          "attributes": {
            "NORMAL": 1,
            "POSITION": 0,
            "TEXCOORD_0": 2
          },
          "indices": 3,
          "material": 0,
          "mode": 4
        }
      ]
    },
    {
      "name": "Object_1",
      "primitives": [
        {
          "attributes": {
            "NORMAL": 5,
            "POSITION": 4
          },
          "indices": 6,
          "material": 1,
          "mode": 4
        }
      ]
    },
    {
      "name": "Object_2",
      "primitives": [
        {
          "attributes": {
            "NORMAL": 8,
            "POSITION": 7,
            "TEXCOORD_0": 9
          },
          "indices": 10,
          "material": 2,
          "mode": 4
        }
      ]
    }
  ],
  "nodes": [
    {
      "children": [
        1
      ],
      "matrix": [
        0.9014795555324813,
        -0.10083219340247596,
        -0.4209126747089065,
        0.0,
        -0.42818342239840135,
        -0.06577344805064175,
        -0.9012950739434459,
        0.0,
        0.0631946812647415,
        0.9927269122498771,
        -0.10246809237354093,
        0.0,
        0.0,
        0.0,
        0.0,
        1.0
      ],
      "name": "FAB converted model"
    },
    {
      "children": [
        2
      ],
      "name": "root"
    },
    {
      "children": [
        3
      ],
      "matrix": [
        1.0,
        0.0,
        0.0,
        0.0,
        0.0,
        2.220446049250313e-16,
        1.0,
        0.0,
        0.0,
        -1.0,
        2.220446049250313e-16,
        0.0,
        0.0,
        0.0,
        0.0,
        1.0
      ],
      "name": "GLTF_SceneRootNode"
    },
    {
      "children": [
        4,
        5,
        7
      ],
      "name": "love potion.002_2"
    },
    {
      "mesh": 0,
      "name": "Object_4"
    },
    {
      "children": [
        6
      ],
      "name": "love potion.003_0"
    },
    {
      "mesh": 1,
      "name": "Object_6"
    },
    {
      "children": [
        8
      ],
      "name": "Sphere.001_1"
    },
    {
      "mesh": 2,
      "name": "Object_8"
    }
  ],
  "samplers": [
    {
      "magFilter": 9729,
      "minFilter": 9987,
      "wrapS": 10497,
      "wrapT": 10497
    }
  ],
  "scene": 0,
  "scenes": [
    {
      "name": "FAB converted",
      "nodes": [
        0
      ]
    }
  ],
  "textures": [
    {
      "sampler": 0,
      "source": 0
    }
  ]
}
